<?xml version="1.0" encoding="UTF-8"?>
<svg xmlns="http://www.w3.org/2000/svg" version="1.1" width="300" height="300" viewBox="0 0 300 300"><rect x="0" y="0" width="300" height="300" fill="#fefefe"/><g transform="scale(10.345)"><g transform="translate(4.000,4.000)"><path fill-rule="evenodd" d="M8 0L8 1L9 1L9 0ZM10 0L10 2L9 2L9 3L10 3L10 5L11 5L11 6L10 6L10 7L9 7L9 6L8 6L8 8L9 8L9 9L11 9L11 10L8 10L8 9L7 9L7 8L6 8L6 9L7 9L7 10L4 10L4 9L5 9L5 8L3 8L3 10L0 10L0 12L1 12L1 13L2 13L2 12L4 12L4 13L7 13L7 12L9 12L9 13L8 13L8 14L9 14L9 16L8 16L8 18L9 18L9 17L10 17L10 19L11 19L11 20L10 20L10 21L11 21L11 20L14 20L14 21L15 21L15 19L17 19L17 20L16 20L16 21L18 21L18 20L21 20L21 18L20 18L20 17L21 17L21 15L20 15L20 17L19 17L19 18L18 18L18 16L19 16L19 14L20 14L20 13L21 13L21 10L20 10L20 9L21 9L21 8L20 8L20 9L18 9L18 10L17 10L17 9L16 9L16 10L17 10L17 11L16 11L16 12L15 12L15 13L13 13L13 12L12 12L12 11L13 11L13 10L12 10L12 9L13 9L13 8L11 8L11 6L12 6L12 7L13 7L13 5L11 5L11 4L13 4L13 0L12 0L12 1L11 1L11 0ZM0 8L0 9L2 9L2 8ZM14 8L14 10L15 10L15 8ZM7 10L7 11L6 11L6 12L7 12L7 11L8 11L8 10ZM18 10L18 11L17 11L17 12L16 12L16 13L20 13L20 11L19 11L19 10ZM1 11L1 12L2 12L2 11ZM18 11L18 12L19 12L19 11ZM10 12L10 13L9 13L9 14L10 14L10 16L11 16L11 13L12 13L12 12ZM13 14L13 15L15 15L15 14ZM13 16L13 17L11 17L11 18L13 18L13 19L14 19L14 18L17 18L17 19L18 19L18 18L17 18L17 17L16 17L16 16L15 16L15 17L14 17L14 16ZM8 19L8 21L9 21L9 19ZM0 0L0 7L7 7L7 0ZM1 1L1 6L6 6L6 1ZM2 2L2 5L5 5L5 2ZM21 0L14 0L14 7L21 7ZM20 1L15 1L15 6L20 6ZM19 2L16 2L16 5L19 5ZM0 21L7 21L7 14L0 14ZM1 20L6 20L6 15L1 15ZM2 19L5 19L5 16L2 16Z" fill="#000000"/></g></g></svg>
