<?xml version="1.0" encoding="UTF-8"?>
<svg xmlns="http://www.w3.org/2000/svg" version="1.1" width="300" height="300" viewBox="0 0 300 300"><rect x="0" y="0" width="300" height="300" fill="#fefefe"/><g transform="scale(10.345)"><g transform="translate(4.000,4.000)"><path fill-rule="evenodd" d="M8 0L8 1L10 1L10 3L9 3L9 2L8 2L8 5L11 5L11 4L12 4L12 5L13 5L13 2L12 2L12 3L11 3L11 1L13 1L13 0ZM10 3L10 4L11 4L11 3ZM8 6L8 7L9 7L9 8L8 8L8 10L6 10L6 9L7 9L7 8L6 8L6 9L4 9L4 8L0 8L0 9L1 9L1 10L2 10L2 11L3 11L3 12L4 12L4 13L8 13L8 14L9 14L9 16L10 16L10 17L8 17L8 21L11 21L11 20L12 20L12 21L14 21L14 20L15 20L15 21L19 21L19 20L15 20L15 19L16 19L16 18L15 18L15 19L14 19L14 18L13 18L13 17L14 17L14 16L13 16L13 15L17 15L17 16L15 16L15 17L18 17L18 18L17 18L17 19L19 19L19 15L18 15L18 14L13 14L13 13L14 13L14 12L12 12L12 11L11 11L11 10L10 10L10 9L12 9L12 10L13 10L13 9L14 9L14 8L13 8L13 6L12 6L12 8L11 8L11 6L10 6L10 7L9 7L9 6ZM9 8L9 9L10 9L10 8ZM16 8L16 9L18 9L18 10L17 10L17 13L18 13L18 11L19 11L19 13L20 13L20 12L21 12L21 8L20 8L20 9L19 9L19 8ZM2 9L2 10L3 10L3 9ZM5 10L5 11L4 11L4 12L8 12L8 11L9 11L9 12L11 12L11 11L10 11L10 10L8 10L8 11L6 11L6 10ZM14 10L14 11L15 11L15 13L16 13L16 10ZM0 11L0 12L1 12L1 11ZM9 13L9 14L11 14L11 15L10 15L10 16L11 16L11 15L13 15L13 14L12 14L12 13ZM20 16L20 17L21 17L21 16ZM9 18L9 19L10 19L10 18ZM11 18L11 19L12 19L12 18ZM20 19L20 20L21 20L21 19ZM0 0L0 7L7 7L7 0ZM1 1L1 6L6 6L6 1ZM2 2L2 5L5 5L5 2ZM21 0L14 0L14 7L21 7ZM20 1L15 1L15 6L20 6ZM19 2L16 2L16 5L19 5ZM0 21L7 21L7 14L0 14ZM1 20L6 20L6 15L1 15ZM2 19L5 19L5 16L2 16Z" fill="#000000"/></g></g></svg>
