<?xml version="1.0" encoding="UTF-8"?>
<svg xmlns="http://www.w3.org/2000/svg" version="1.1" width="300" height="300" viewBox="0 0 300 300"><rect x="0" y="0" width="300" height="300" fill="#fefefe"/><g transform="scale(10.345)"><g transform="translate(4.000,4.000)"><path fill-rule="evenodd" d="M8 0L8 1L9 1L9 0ZM11 0L11 1L10 1L10 2L9 2L9 3L10 3L10 5L11 5L11 6L10 6L10 7L9 7L9 6L8 6L8 8L9 8L9 9L7 9L7 8L6 8L6 9L5 9L5 8L3 8L3 9L5 9L5 10L4 10L4 11L3 11L3 10L2 10L2 8L0 8L0 10L1 10L1 11L3 11L3 12L2 12L2 13L3 13L3 12L4 12L4 13L8 13L8 14L9 14L9 13L8 13L8 12L12 12L12 11L13 11L13 12L14 12L14 13L12 13L12 14L11 14L11 13L10 13L10 15L9 15L9 16L8 16L8 18L9 18L9 19L8 19L8 21L13 21L13 20L14 20L14 21L15 21L15 19L17 19L17 20L16 20L16 21L18 21L18 20L21 20L21 18L20 18L20 17L21 17L21 15L20 15L20 17L19 17L19 19L18 19L18 18L15 18L15 17L14 17L14 16L16 16L16 17L18 17L18 16L19 16L19 13L21 13L21 12L19 12L19 11L21 11L21 10L18 10L18 9L17 9L17 11L18 11L18 12L14 12L14 10L15 10L15 11L16 11L16 9L15 9L15 8L14 8L14 10L13 10L13 5L11 5L11 3L12 3L12 4L13 4L13 0ZM11 6L11 7L12 7L12 6ZM20 8L20 9L21 9L21 8ZM6 9L6 10L7 10L7 11L5 11L5 12L7 12L7 11L8 11L8 10L7 10L7 9ZM11 9L11 10L10 10L10 11L12 11L12 9ZM18 12L18 13L17 13L17 14L18 14L18 13L19 13L19 12ZM10 15L10 17L11 17L11 18L14 18L14 17L12 17L12 16L14 16L14 15L12 15L12 16L11 16L11 15ZM10 19L10 20L13 20L13 19ZM0 0L0 7L7 7L7 0ZM1 1L1 6L6 6L6 1ZM2 2L2 5L5 5L5 2ZM21 0L14 0L14 7L21 7ZM20 1L15 1L15 6L20 6ZM19 2L16 2L16 5L19 5ZM0 21L7 21L7 14L0 14ZM1 20L6 20L6 15L1 15ZM2 19L5 19L5 16L2 16Z" fill="#000000"/></g></g></svg>
