<?xml version="1.0" encoding="UTF-8"?>
<svg xmlns="http://www.w3.org/2000/svg" version="1.1" width="300" height="300" viewBox="0 0 300 300"><rect x="0" y="0" width="300" height="300" fill="#fefefe"/><g transform="scale(10.345)"><g transform="translate(4.000,4.000)"><path fill-rule="evenodd" d="M8 0L8 1L9 1L9 2L8 2L8 5L11 5L11 6L10 6L10 7L9 7L9 6L8 6L8 7L9 7L9 8L8 8L8 9L9 9L9 8L10 8L10 9L12 9L12 10L13 10L13 9L14 9L14 10L15 10L15 12L14 12L14 11L12 11L12 12L11 12L11 11L10 11L10 12L11 12L11 13L15 13L15 14L16 14L16 15L17 15L17 16L14 16L14 15L12 15L12 14L9 14L9 13L8 13L8 12L6 12L6 11L7 11L7 10L5 10L5 9L4 9L4 8L0 8L0 9L3 9L3 10L2 10L2 11L1 11L1 12L0 12L0 13L1 13L1 12L2 12L2 13L3 13L3 11L4 11L4 12L5 12L5 13L8 13L8 14L9 14L9 15L10 15L10 17L8 17L8 21L9 21L9 20L10 20L10 21L12 21L12 20L15 20L15 21L19 21L19 20L15 20L15 19L16 19L16 18L15 18L15 19L13 19L13 18L14 18L14 17L17 17L17 18L19 18L19 15L18 15L18 13L17 13L17 12L18 12L18 9L19 9L19 8L16 8L16 9L17 9L17 11L16 11L16 10L15 10L15 9L14 9L14 8L12 8L12 7L13 7L13 6L12 6L12 4L13 4L13 3L12 3L12 0L11 0L11 1L9 1L9 0ZM9 2L9 3L10 3L10 4L12 4L12 3L10 3L10 2ZM11 6L11 7L12 7L12 6ZM6 8L6 9L7 9L7 8ZM20 8L20 10L19 10L19 12L20 12L20 11L21 11L21 8ZM4 10L4 11L5 11L5 10ZM8 10L8 11L9 11L9 10ZM19 13L19 14L20 14L20 13ZM11 15L11 16L12 16L12 15ZM20 16L20 17L21 17L21 16ZM10 18L10 20L12 20L12 18ZM20 19L20 20L21 20L21 19ZM0 0L0 7L7 7L7 0ZM1 1L1 6L6 6L6 1ZM2 2L2 5L5 5L5 2ZM21 0L14 0L14 7L21 7ZM20 1L15 1L15 6L20 6ZM19 2L16 2L16 5L19 5ZM0 21L7 21L7 14L0 14ZM1 20L6 20L6 15L1 15ZM2 19L5 19L5 16L2 16Z" fill="#000000"/></g></g></svg>
