<?xml version="1.0" encoding="UTF-8"?>
<svg xmlns="http://www.w3.org/2000/svg" version="1.1" width="300" height="300" viewBox="0 0 300 300"><rect x="0" y="0" width="300" height="300" fill="#fefefe"/><g transform="scale(10.345)"><g transform="translate(4.000,4.000)"><path fill-rule="evenodd" d="M9 0L9 1L8 1L8 2L9 2L9 3L8 3L8 4L10 4L10 5L8 5L8 7L9 7L9 6L10 6L10 8L6 8L6 9L7 9L7 10L4 10L4 9L5 9L5 8L0 8L0 9L1 9L1 10L0 10L0 12L2 12L2 13L7 13L7 12L2 12L2 11L1 11L1 10L4 10L4 11L7 11L7 10L8 10L8 9L9 9L9 10L10 10L10 11L8 11L8 15L11 15L11 14L12 14L12 16L8 16L8 21L9 21L9 17L11 17L11 18L12 18L12 19L10 19L10 20L12 20L12 21L15 21L15 20L16 20L16 18L18 18L18 17L17 17L17 16L19 16L19 15L20 15L20 14L21 14L21 13L18 13L18 14L17 14L17 16L16 16L16 17L15 17L15 16L13 16L13 14L12 14L12 13L15 13L15 14L14 14L14 15L15 15L15 14L16 14L16 13L17 13L17 12L19 12L19 11L20 11L20 10L21 10L21 9L20 9L20 8L19 8L19 9L20 9L20 10L18 10L18 8L17 8L17 9L16 9L16 8L15 8L15 9L16 9L16 10L15 10L15 12L13 12L13 11L14 11L14 10L12 10L12 9L10 9L10 8L11 8L11 5L12 5L12 8L13 8L13 9L14 9L14 8L13 8L13 5L12 5L12 4L13 4L13 0L12 0L12 1L11 1L11 4L10 4L10 2L9 2L9 1L10 1L10 0ZM11 10L11 11L10 11L10 13L11 13L11 11L12 11L12 10ZM16 10L16 12L17 12L17 11L18 11L18 10ZM12 17L12 18L13 18L13 19L12 19L12 20L15 20L15 19L14 19L14 18L15 18L15 17ZM19 17L19 18L20 18L20 17ZM17 19L17 21L18 21L18 20L19 20L19 21L20 21L20 20L19 20L19 19ZM0 0L0 7L7 7L7 0ZM1 1L1 6L6 6L6 1ZM2 2L2 5L5 5L5 2ZM21 0L14 0L14 7L21 7ZM20 1L15 1L15 6L20 6ZM19 2L16 2L16 5L19 5ZM0 21L7 21L7 14L0 14ZM1 20L6 20L6 15L1 15ZM2 19L5 19L5 16L2 16Z" fill="#000000"/></g></g></svg>
